<?xml version="1.0" encoding="UTF-8"?>
<svg width="136px" height="63px" viewBox="0 0 136 63" version="1.1" xmlns="http://www.w3.org/2000/svg" xmlns:xlink="http://www.w3.org/1999/xlink">
    <!-- Generator: Sketch 57.1 (83088) - https://sketch.com -->
    <title>IBP logo R</title>
    <desc>Created with Sketch.</desc>
    <g id="Page-1" stroke="none" stroke-width="1" fill="none" fill-rule="evenodd">
        <g id="Artboard" transform="translate(-666.000000, -1616.000000)">
            <g id="IBP-logo-R" transform="translate(666.000000, 1616.000000)">
                <path d="M49.5681277,0.188123037 C48.1359911,0.188123037 46.9265455,0.696819372 45.9468503,1.7120288 C44.9630796,2.73233246 44.4739597,3.94177801 44.4739597,5.34356754 L44.4739597,31.2995251 C44.4739597,32.7323895 44.9680283,33.9470021 45.9468503,34.9213848 C46.9314942,35.9002068 48.1359911,36.3944937 49.5681277,36.3944937 C50.9698445,36.3944937 52.1741958,35.8995518 53.200467,34.9213848 C54.2199702,33.9470021 54.724955,32.731589 54.724955,31.2995251 L54.724955,5.34356754 C54.724955,3.94177801 54.2257194,2.73233246 53.200467,1.7120288 C52.1801634,0.696819372 50.9698445,0.188123037 49.5681277,0.188123037 Z M44.4739597,44.2403524 C44.4739597,45.6833325 44.9651173,46.8899398 45.9468503,47.8716728 C46.9285832,48.8548613 48.1359911,49.3454366 49.5681277,49.3454366 C50.9698445,49.3454366 52.1772524,48.8548613 53.200467,47.8716728 C54.2228812,46.8899398 54.724955,45.6833325 54.724955,44.2403524 C54.724955,42.8486785 54.2228812,41.6429445 53.200467,40.6197298 C52.1772524,39.5965152 50.9698445,39.0958241 49.5681277,39.0958241 C48.1359911,39.0958241 46.9285832,39.5965152 45.9468503,40.6197298 C44.9651173,41.6429445 44.4739597,42.8486785 44.4739597,44.2403524 L44.4739597,44.2403524 Z" id="Fill-1" fill="#EC1D24"></path>
                <path d="M112.688392,13.263511 C117.681475,13.3864277 121.864429,15.1461241 125.241183,18.5622492 C128.617355,21.9804848 130.386512,26.2253702 130.55091,31.3094225 C130.386512,36.3847419 128.607021,40.6399613 125.210691,44.0777733 C121.813487,47.5135476 117.578717,49.2637105 112.504999,49.3452183 C111.102627,49.3046099 109.906136,48.7921293 108.913486,47.7900194 C107.911304,46.7871817 107.41003,45.5906901 107.41003,44.1897738 C107.41003,42.7569094 107.921638,41.5497199 108.943979,40.5679141 C109.957078,39.5853806 111.144109,39.0956785 112.504999,39.0956785 C114.662628,39.0956785 116.50456,38.3272487 118.01835,36.7930089 C119.543057,35.248144 120.299915,33.4271712 120.299915,31.3094225 C120.299915,29.1924743 119.543057,27.3608037 118.01835,25.8165209 C116.50456,24.281699 114.683806,23.5145063 112.566712,23.5145063 C110.407627,23.5145063 108.565695,24.281699 107.051905,25.8165209 C105.538115,27.3608037 104.77034,29.1924743 104.77034,31.3094225 L104.77034,57.2019932 C104.77034,58.6342754 104.269649,59.851799 103.246435,60.8240712 C102.22322,61.8058042 101.01603,62.2969618 99.6143136,62.2969618 C98.1828319,62.2969618 96.9747691,61.8058042 95.9944916,60.8240712 C95.0113031,59.851799 94.5201455,58.6342754 94.5201455,57.2019932 L94.5201455,30.9411817 C94.6837435,26.1124963 96.4529005,21.9804848 99.8296545,18.5622492 C103.205826,15.1461241 107.491538,13.3864277 112.688392,13.263511" id="Fill-2" fill="#231F20"></path>
                <path d="M77.3214791,49.2585435 C82.3131073,49.1364272 86.4976623,47.3759304 89.8736157,43.9600236 C93.2489869,40.5417152 95.0189445,36.2961021 95.1825424,31.2126319 C95.0189445,26.1381131 93.2388712,21.8829665 89.8424681,18.4450817 C86.4459194,15.0078518 82.2111497,13.2591445 77.1366309,13.1776366 C75.7357147,13.2168623 74.5385681,13.7299251 73.5467194,14.7320351 C72.5437361,15.7348728 72.0424628,16.9313644 72.0424628,18.3328628 C72.0424628,19.7659455 72.5532696,20.9725529 73.5764115,21.9534853 C74.5901654,22.9366738 75.7765414,23.4278314 77.1366309,23.4278314 C79.2950607,23.4278314 81.1364105,24.1950241 82.6507827,25.7290455 C84.175489,27.2747838 84.9323476,29.0948832 84.9323476,31.2126319 C84.9323476,33.3304534 84.175489,35.1621241 82.6507827,36.7064068 C81.1364105,38.2405738 79.3154377,39.0084215 77.197689,39.0084215 C75.0400597,39.0084215 73.1981277,38.2405738 71.6843377,36.7064068 C70.1705476,35.1621241 69.4027728,33.3304534 69.4027728,31.2126319 L69.4027728,5.32006126 C69.4027728,3.88799738 68.9020817,2.67047382 67.8782848,1.69820157 C66.8557251,0.717050785 65.6484628,0.225893194 64.2467461,0.225893194 C62.8144639,0.225893194 61.6072743,0.717050785 60.6261236,1.69820157 C59.6437356,2.67047382 59.1517775,3.88799738 59.1517775,5.32006126 L59.1517775,31.5808728 C59.3155209,36.4095581 61.085333,40.5417152 64.4615047,43.9600236 C67.8382586,47.3759304 72.1239707,49.1364272 77.3214791,49.2585435" id="Fill-3" fill="#231F20"></path>
                <path d="M11.3822079,3.06011047 L12.6155963,3.06011047 L12.6155963,12.208712 L11.3822079,12.208712 L11.3822079,3.06011047 Z M14.4153188,12.208712 L14.4153188,3.06011047 L15.5550461,3.06011047 L17.9806325,9.4126288 L17.9806325,3.06011047 L19.1529628,3.06011047 L19.1529628,12.208712 L17.9938047,12.208712 L15.5804445,5.80379581 L15.5804445,12.208712 L14.4153188,12.208712 Z M22.1862921,11.0297592 L22.8251827,11.0297592 C23.5187272,11.0297592 24.0057366,10.7793408 24.2887581,10.2780675 C24.5711974,9.77657592 24.7123079,8.88952304 24.7123079,7.61581728 C24.7123079,6.34589581 24.5726529,5.46029843 24.2931246,4.96106283 C24.0121408,4.4624822 23.5232393,4.2122822 22.8251827,4.2122822 L22.1862921,4.2122822 L22.1862921,11.0297592 Z M20.9396586,12.208712 L20.9396586,3.06011047 L22.5691607,3.06011047 C23.8134654,3.06011047 24.6904026,3.40215236 25.1977162,4.08412565 C25.7041565,4.7674089 25.9597419,5.9486178 25.9597419,7.62826178 C25.9597419,9.31219948 25.7041565,10.4954461 25.1977162,11.1817859 C24.6904026,11.8666702 23.8134654,12.208712 22.5691607,12.208712 L20.9396586,12.208712 Z M27.4500257,3.06011047 L28.684433,3.06011047 L28.684433,12.208712 L27.4500257,12.208712 L27.4500257,3.06011047 Z M32.5000194,5.42092723 L31.6746068,9.38271832 L33.3208471,9.38271832 L32.5000194,5.42092723 Z M29.7753283,12.208712 L31.9184754,3.06011047 L33.0769785,3.06011047 L35.2217995,12.208712 L33.9735649,12.208712 L33.5356058,10.410445 L31.4476948,10.410445 L31.021889,12.208712 L29.7753283,12.208712 Z M36.2856225,12.208712 L36.2856225,3.06011047 L37.4260047,3.06011047 L39.8523916,9.4126288 L39.8523916,3.06011047 L41.0241398,3.06011047 L41.0241398,12.208712 L39.8639628,12.208712 L37.4516215,5.80379581 L37.4516215,12.208712 L36.2856225,12.208712 Z M1.82679476,18.339267 L2.27879948,18.339267 C2.74295759,18.339267 3.0843445,18.2241372 3.30055864,17.9943141 C3.51961099,17.7643455 3.6279,17.4070209 3.6279,16.9173188 C3.6279,16.4034555 3.52747068,16.0403817 3.32450157,15.8262052 C3.12145969,15.6137754 2.77286806,15.5068691 2.27879948,15.5068691 L1.82679476,15.5068691 L1.82679476,18.339267 Z M1.82679476,22.4001047 L2.24168429,22.4001047 C2.80918272,22.4001047 3.19860105,22.2901419 3.41030314,22.0739277 C3.62135026,21.8565492 3.72614607,21.4736806 3.72614607,20.9211738 C3.72614607,20.3652466 3.61269005,19.9650576 3.38410419,19.721189 C3.15719215,19.4773932 2.78152827,19.3544037 2.25543874,19.3544037 L1.82679476,19.3544037 L1.82679476,22.4001047 Z M0.599155497,23.5652304 L0.599155497,14.4160466 L2.2911712,14.4160466 C3.1854288,14.4160466 3.83319791,14.6000215 4.23484241,14.9676801 C4.63583194,15.3358482 4.83676335,15.9252518 4.83676335,16.7353817 C4.83676335,17.3443618 4.73859005,17.8167435 4.54137016,18.1486696 C4.34764346,18.4803775 4.03267382,18.7161681 3.60257435,18.852912 C4.08361623,18.9665864 4.42995183,19.1862937 4.64820366,19.5130529 C4.86507277,19.8435236 4.97292513,20.3157597 4.97292513,20.9344188 C4.97292513,21.8367545 4.76398848,22.4997335 4.34764346,22.9261215 C3.92991571,23.351345 3.27719791,23.5652304 2.39160052,23.5652304 L0.599155497,23.5652304 Z M6.33818168,21.1287277 L6.33818168,14.4160466 L7.55344921,14.4160466 L7.55344921,21.2263188 C7.55344921,21.667189 7.65104031,21.9910372 7.84826021,22.2006288 C8.04540733,22.4073094 8.34458482,22.5129785 8.75139634,22.5129785 C9.15733455,22.5129785 9.45643927,22.4073094 9.65162147,22.2006288 C9.84658534,21.9910372 9.94272094,21.667189 9.94272094,21.2263188 L9.94272094,14.4160466 L11.1637377,14.4160466 L11.1637377,21.1287277 C11.1637377,22.0143251 10.9716848,22.6598382 10.5844497,23.0666497 C10.1972874,23.4757173 9.58743403,23.6786864 8.75139634,23.6786864 C7.91441257,23.6786864 7.30463194,23.4757173 6.91746963,23.0666497 C6.53023455,22.6598382 6.33818168,22.0143251 6.33818168,21.1287277 Z M12.6527115,21.961345 C12.9452665,22.1401529 13.2146791,22.2734764 13.4605853,22.359278 C13.7072921,22.4444246 13.9401717,22.4867796 14.1563859,22.4867796 C14.5324864,22.4867796 14.8323916,22.3782723 15.054355,22.1576916 C15.2749356,21.9394398 15.3862812,21.6460843 15.3862812,21.2779162 C15.3862812,20.7401099 14.9625859,20.1228335 14.1141037,19.4301623 C14.0130194,19.3463984 13.9379157,19.2824293 13.8863911,19.2416026 C13.3448733,18.7947649 12.9650613,18.3798754 12.7465911,17.9964246 C12.5305953,17.6143565 12.4212874,17.1857126 12.4212874,16.7097649 C12.4212874,16.0205869 12.6412131,15.4455927 13.0807733,14.9850005 C13.5181503,14.5251361 14.0623607,14.2957497 14.7100571,14.2957497 C14.9954073,14.2957497 15.2691136,14.3308272 15.5317581,14.3970524 C15.7952031,14.4632775 16.0557372,14.5680733 16.3140152,14.7099843 L16.3140152,15.9398796 C16.0775696,15.7724246 15.8446901,15.6459419 15.6146487,15.5642157 C15.3891921,15.4842361 15.1643178,15.4427545 14.940899,15.4427545 C14.5514079,15.4427545 14.2408047,15.5555555 14.0063969,15.7841414 C13.7735173,16.0127272 13.6555492,16.3167806 13.6555492,16.6959377 C13.6555492,17.2228277 14.1046429,17.8449801 15.002612,18.5641414 C15.0871764,18.631822 15.1534016,18.6818911 15.1977215,18.7161681 C15.7203178,19.1376073 16.0899414,19.5415079 16.3081932,19.9307806 C16.5244073,20.3209267 16.6335696,20.7648534 16.6335696,21.266345 C16.6335696,21.9670942 16.4086953,22.5441262 15.9610571,22.9983141 C15.5142194,23.451556 14.9430094,23.6786864 14.2442979,23.6786864 C13.9897314,23.6786864 13.7305801,23.6395335 13.4677901,23.5652304 C13.204345,23.491 12.9328948,23.374633 12.6527115,23.2209325 L12.6527115,21.961345 Z M17.9806325,14.4160466 L19.2148215,14.4160466 L19.2148215,23.5644298 L17.9806325,23.5644298 L17.9806325,14.4160466 Z M21.0130885,23.5652304 L21.0130885,14.4160466 L22.1534707,14.4160466 L24.5798576,20.7691471 L24.5798576,14.4160466 L25.752188,14.4160466 L25.752188,23.5652304 L24.5928843,23.5652304 L22.1796696,17.1609691 L22.1796696,23.5652304 L21.0130885,23.5652304 Z M27.4980571,23.5652304 L27.4980571,14.4160466 L31.1595063,14.4160466 L31.1595063,15.5198958 L28.7337743,15.5198958 L28.7337743,18.2388377 L30.9513702,18.2388377 L30.9513702,19.3304607 L28.7337743,19.3304607 L28.7337743,22.4248482 L31.1595063,22.4248482 L31.1595063,23.5652304 L27.4980571,23.5652304 Z M32.386345,21.961345 C32.6790455,22.1401529 32.9496953,22.2734764 33.1956016,22.359278 C33.4408529,22.4444246 33.6746058,22.4867796 33.8900194,22.4867796 C34.2677209,22.4867796 34.5660251,22.3782723 34.789444,22.1576916 C35.0099518,21.9394398 35.1204969,21.6460843 35.1204969,21.2779162 C35.1204969,20.7401099 34.6970199,20.1228335 33.8476644,19.4301623 C33.7472351,19.3463984 33.6723497,19.2824293 33.6207524,19.2416026 C33.0798895,18.7947649 32.698622,18.3798754 32.4810251,17.9964246 C32.2642288,17.6143565 32.1557215,17.1857126 32.1557215,16.7097649 C32.1557215,16.0205869 32.3754288,15.4455927 32.8144068,14.9850005 C33.2531665,14.5251361 33.796722,14.2957497 34.4436906,14.2957497 C34.7289681,14.2957497 35.0027471,14.3308272 35.2653188,14.3970524 C35.5287639,14.4632775 35.7907534,14.5680733 36.0492497,14.7099843 L36.0492497,15.9398796 C35.8112031,15.7724246 35.5782508,15.6459419 35.3498832,15.5642157 C35.1227529,15.4842361 34.8979513,15.4427545 34.675988,15.4427545 C34.2872974,15.4427545 33.9766215,15.5555555 33.7414859,15.7841414 C33.5079513,16.0127272 33.3893283,16.3167806 33.3893283,16.6959377 C33.3893283,17.2228277 33.8390042,17.8449801 34.7378466,18.5641414 C34.8207372,18.631822 34.8876173,18.6818911 34.9321555,18.7161681 C35.4538785,19.1376073 35.8243754,19.5415079 36.0426272,19.9307806 C36.2588414,20.3209267 36.3679309,20.7648534 36.3679309,21.266345 C36.3679309,21.9670942 36.142256,22.5441262 35.6954183,22.9983141 C35.2485806,23.451556 34.6773707,23.6786864 33.978077,23.6786864 C33.7239471,23.6786864 33.4650141,23.6395335 33.2015691,23.5652304 C32.9387791,23.491 32.6666738,23.374633 32.386345,23.2209325 L32.386345,21.961345 Z M37.4821141,21.961345 C37.7746691,22.1401529 38.0446639,22.2734764 38.2905702,22.359278 C38.5358942,22.4444246 38.7702293,22.4867796 38.9855702,22.4867796 C39.3618162,22.4867796 39.6609937,22.3782723 39.8837576,22.1576916 C40.1041199,21.9394398 40.2148832,21.6460843 40.2148832,21.2779162 C40.2148832,20.7401099 39.7919885,20.1228335 38.942633,19.4301623 C38.8422037,19.3463984 38.7673183,19.2824293 38.7155754,19.2416026 C38.1742031,18.7947649 37.7942455,18.3798754 37.5751932,17.9964246 C37.3591974,17.6143565 37.2514906,17.1857126 37.2514906,16.7097649 C37.2514906,16.0205869 37.4711979,15.4455927 37.9093754,14.9850005 C38.3487901,14.5251361 38.8916906,14.2957497 39.5394597,14.2957497 C39.8239366,14.2957497 40.0982979,14.3308272 40.3611607,14.3970524 C40.6237325,14.4632775 40.8851398,14.5680733 41.143345,14.7099843 L41.143345,15.9398796 C40.9061717,15.7724246 40.6732194,15.6459419 40.4440513,15.5642157 C40.2177215,15.4842361 39.9929199,15.4427545 39.7709565,15.4427545 C39.3814654,15.4427545 39.0707895,15.5555555 38.8357995,15.7841414 C38.6029199,16.0127272 38.4848791,16.3167806 38.4848791,16.6959377 C38.4848791,17.2228277 38.9339728,17.8449801 39.8333974,18.5641414 C39.9163607,18.631822 39.9825859,18.6818911 40.0271241,18.7161681 C40.5488471,19.1376073 40.919344,19.5415079 41.1375958,19.9307806 C41.3529366,20.3209267 41.4628995,20.7648534 41.4628995,21.266345 C41.4628995,21.9670942 41.2380979,22.5441262 40.7912602,22.9983141 C40.343622,23.451556 39.7729942,23.6786864 39.0736277,23.6786864 C38.8189157,23.6786864 38.5599827,23.6395335 38.2963921,23.5652304 C38.0337476,23.491 37.7622974,23.374633 37.4821141,23.2209325 L37.4821141,21.961345 Z M16.4173555,29.7902471 L16.8751094,29.7902471 C17.426088,29.7902471 17.8182717,29.6739529 18.0534073,29.4461675 C18.2863597,29.2147435 18.4035272,28.8332576 18.4035272,28.2992356 C18.4035272,27.7861728 18.2803921,27.4156759 18.0323754,27.1887639 C17.7811565,26.9644717 17.3664853,26.8510157 16.7878524,26.8510157 L16.4173555,26.8510157 L16.4173555,29.7902471 Z M15.1825115,34.9217487 L15.1825115,25.7731471 L16.6867681,25.7731471 C17.2426953,25.7731471 17.6742503,25.8131733 17.9849262,25.8932257 C18.2927639,25.9712403 18.5627586,26.1022351 18.790544,26.2862099 C19.0590832,26.5038796 19.2686749,26.7906126 19.4164079,27.1507754 C19.5641408,27.510356 19.6383712,27.9090895 19.6383712,28.3487225 C19.6383712,29.181922 19.3947209,29.8173194 18.909167,30.2517126 C18.4216482,30.6870518 17.7114382,30.9044304 16.7740251,30.9044304 C16.673523,30.9044304 16.5992927,30.9044304 16.5491508,30.9023927 C16.4988634,30.9009372 16.4552712,30.8957702 16.4173555,30.8914764 L16.4173555,34.9217487 L15.1825115,34.9217487 Z M22.3872236,28.1347644 L21.5612288,32.0951728 L23.2088518,32.0951728 L22.3872236,28.1347644 Z M19.6616592,34.9217487 L21.8050246,25.7731471 L22.965056,25.7731471 L25.1075482,34.9217487 L23.8607691,34.9217487 L23.4219366,33.1226812 L21.334899,33.1226812 L20.9082927,34.9217487 L19.6616592,34.9217487 Z M31.1549942,30.0079168 C31.1653283,30.2007702 31.1762445,30.3893298 31.1834492,30.5733775 C31.1891984,30.7575707 31.1915272,30.9320848 31.1915272,31.098812 C31.1915272,32.4409262 30.9738576,33.4313194 30.5365534,34.072466 C30.1006319,34.7142675 29.4289199,35.0346225 28.5220723,35.0346225 C27.586988,35.0346225 26.9086534,34.6706754 26.4915806,33.9435089 C26.0738529,33.2159058 25.8642613,32.0217429 25.8642613,30.3522147 C25.8642613,28.6651476 26.0738529,27.4599958 26.4938366,26.7373414 C26.9152759,26.0141047 27.6036534,25.6531414 28.5598424,25.6531414 C29.2360665,25.6531414 29.7817325,25.8131733 30.1965492,26.1319272 C30.6099832,26.4514817 30.8938052,26.9345613 31.0472874,27.5823304 L29.9572654,28.1092204 C29.8691351,27.6617277 29.7091031,27.329001 29.4797168,27.1122047 C29.2504759,26.8954084 28.947878,26.786901 28.5707586,26.786901 C28.0366639,26.786901 27.6596173,27.0430686 27.4407105,27.5546759 C27.2207848,28.0662832 27.1124958,28.9904513 27.1124958,30.3274712 C27.1124958,31.6540843 27.2207848,32.5733764 27.4407105,33.0921885 C27.6596173,33.6103455 28.0366639,33.8694969 28.5707586,33.8694969 C29.0475068,33.8694969 29.4048314,33.672277 29.6463712,33.2807482 C29.8865283,32.8868906 30.0067524,32.2995974 30.0067524,31.5179953 C30.0067524,31.400755 30.0067524,31.3129157 30.0036958,31.2530948 C30.0022403,31.1911634 29.9978738,31.1352723 29.9929251,31.0863675 L28.684433,31.0863675 L28.684433,30.0079168 L31.1549942,30.0079168 Z M32.5938262,34.9217487 L32.5938262,25.7731471 L36.2544749,25.7731471 L36.2544749,26.8764141 L33.8287429,26.8764141 L33.8287429,29.595356 L36.0463387,29.595356 L36.0463387,30.6870518 L33.8287429,30.6870518 L33.8287429,33.7813665 L36.2544749,33.7813665 L36.2544749,34.9217487 L32.5938262,34.9217487 Z M37.4821141,33.3169901 C37.7746691,33.4966712 38.0446639,33.6299948 38.2905702,33.7151414 C38.5358942,33.8001424 38.7702293,33.8438801 38.9855702,33.8438801 C39.3618162,33.8438801 39.6609937,33.7339173 39.8837576,33.5142099 C40.1041199,33.2959581 40.2148832,33.0026026 40.2148832,32.6350168 C40.2148832,32.0951728 39.7919885,31.4802251 38.942633,30.7872628 C38.8422037,30.7029168 38.7673183,30.6389476 38.7155754,30.5989215 C38.1742031,30.1512832 37.7942455,29.7364665 37.5751932,29.3529429 C37.3591974,28.9702927 37.2514906,28.5436864 37.2514906,28.0662832 C37.2514906,27.3771052 37.4711979,26.8015288 37.9093754,26.3415188 C38.3487901,25.8823094 38.8916906,25.6531414 39.5394597,25.6531414 C39.8239366,25.6531414 40.0982979,25.6873455 40.3611607,25.7542257 C40.6237325,25.8197958 40.8851398,25.9245916 41.143345,26.0657021 L41.143345,27.2955974 C40.9061717,27.128288 40.6732194,27.0022419 40.4440513,26.9216073 C40.2177215,26.8400995 39.9929199,26.7992728 39.7709565,26.7992728 C39.3814654,26.7992728 39.0707895,26.9129471 38.8357995,27.1421152 C38.6029199,27.368445 38.4848791,27.6718435 38.4848791,28.0533293 C38.4848791,28.5786911 38.9339728,29.2009162 39.8333974,29.9206597 C39.9163607,29.9889225 39.9825859,30.0378272 40.0271241,30.0720314 C40.5488471,30.4933251 40.919344,30.8986812 41.1375958,31.287299 C41.3529366,31.6765717 41.4628995,32.1219539 41.4628995,32.6220628 C41.4628995,33.3236126 41.2380979,33.9006445 40.7912602,34.3549052 C40.343622,34.8080743 39.7729942,35.0346225 39.0736277,35.0346225 C38.8189157,35.0346225 38.5599827,34.9974346 38.2963921,34.9217487 C38.0337476,34.846645 37.7622974,34.730933 37.4821141,34.5768686 L37.4821141,33.3169901 Z" id="Fill-4" fill="#231F20"></path>
                <text id="®--" font-family="ArialMT, Arial" font-size="12.53" font-weight="normal" fill="#231F20">
                    <tspan x="126.334917" y="18.4115641">®  </tspan>
                </text>
            </g>
        </g>
    </g>
</svg>